<?xml version="1.0" standalone="no"?>
<!DOCTYPE svg PUBLIC "-//W3C//DTD SVG 20010904//EN"
 "http://www.w3.org/TR/2001/REC-SVG-20010904/DTD/svg10.dtd">
<svg version="1.0" xmlns="http://www.w3.org/2000/svg"
 width="150.000000pt" height="143.000000pt" viewBox="0 0 150.000000 143.000000"
 preserveAspectRatio="xMidYMid meet">

<g transform="translate(0.000000,143.000000) scale(0.100000,-0.100000)"
fill="#000000" stroke="none">
<path d="M0 715 l0 -715 750 0 750 0 0 715 0 715 -750 0 -750 0 0 -715z m600
690 c0 -12 -13 -15 -60 -15 -47 0 -60 3 -60 15 0 12 13 15 60 15 47 0 60 -3
60 -15z m148 3 c-3 -8 -28 -14 -66 -16 -51 -2 -62 0 -62 13 0 12 13 15 66 15
48 0 65 -3 62 -12z m132 -3 c0 -12 -13 -15 -60 -15 -47 0 -60 3 -60 15 0 12
13 15 60 15 47 0 60 -3 60 -15z m85 -5 c33 0 55 5 58 13 3 7 6 5 6 -5 1 -15
-8 -18 -64 -18 -56 0 -65 3 -64 18 0 10 3 12 6 5 3 -8 25 -13 58 -13z m68 -32
c14 -11 -40 -13 -282 -13 -238 0 -297 3 -289 13 15 17 547 17 571 0z m10 -50
c-2 -5 -134 -8 -293 -8 -159 0 -291 3 -293 8 -3 4 129 7 293 7 164 0 296 -3
293 -7z m-443 -303 l0 -275 -60 0 -60 0 0 275 0 275 60 0 60 0 0 -275z m145
45 l0 -225 -62 -3 -63 -3 0 231 0 231 63 -3 62 -3 0 -225z m135 75 l0 -155
-60 0 -60 0 0 155 0 155 60 0 60 0 0 -155z m150 60 c0 -52 -3 -95 -7 -95 -5 0
-7 40 -5 90 l3 90 -55 0 -55 0 -4 -92 -3 -93 -2 98 -2 97 65 0 65 0 0 -95z
m-410 -710 c-6 -15 -13 -25 -17 -22 -3 4 0 21 8 38 16 39 24 24 9 -16z m40 10
c0 -19 -2 -35 -4 -35 -2 0 -6 16 -8 35 -2 19 0 35 4 35 4 0 8 -16 8 -35z m750
0 c0 -44 -17 -46 -23 -2 l-4 32 -13 -32 c-8 -17 -25 -37 -39 -44 l-26 -13 28
-4 27 -3 0 -112 c0 -136 10 -157 71 -157 28 0 39 4 39 15 0 10 -10 15 -30 15
-41 0 -50 27 -50 146 l0 94 39 0 c29 0 41 5 44 18 4 13 5 11 6 -5 1 -20 -4
-23 -34 -23 l-36 0 3 -107 3 -108 33 -3 c26 -3 32 -8 32 -26 0 -32 -43 -40
-90 -18 -42 21 -52 58 -48 180 3 79 2 82 -19 82 -31 0 -30 28 1 40 15 5 27 20
31 39 5 24 12 31 31 31 21 0 24 -5 24 -35z m-1200 -50 c33 -30 53 -99 47 -161
-11 -102 -85 -162 -161 -130 l-36 15 0 -75 c0 -43 -4 -74 -10 -74 -6 0 -10 35
-10 85 0 47 4 85 8 85 5 0 17 -7 28 -15 10 -8 37 -15 59 -15 80 0 109 47 103
165 -3 65 -7 78 -30 101 -14 15 -44 31 -65 35 l-38 8 43 -3 c24 -3 52 -12 62
-21z m690 16 c-84 -17 -110 -55 -110 -160 0 -65 2 -72 34 -105 30 -33 38 -36
89 -36 68 0 87 7 87 31 0 16 -3 18 -19 9 -11 -5 -40 -10 -64 -10 -38 0 -49 5
-72 31 -17 21 -25 41 -23 58 3 26 3 26 96 26 l92 0 0 28 c0 40 -24 92 -51 111
-17 12 -19 16 -7 16 28 0 66 -63 70 -116 l3 -49 -94 -3 -93 -3 6 -31 c3 -17
14 -37 24 -45 17 -13 75 -13 120 2 20 7 22 4 22 -23 0 -28 -3 -31 -49 -41
-124 -27 -203 50 -187 183 10 85 58 135 131 134 29 0 29 -1 -5 -7z m280 0
c-60 -9 -88 -26 -96 -57 -10 -39 9 -68 62 -95 67 -33 84 -48 84 -74 0 -37 -24
-48 -91 -43 -55 4 -60 3 -55 -14 3 -12 0 -18 -7 -15 -7 2 -13 16 -15 32 -3 25
-1 27 20 20 45 -15 108 -17 123 -5 30 25 17 48 -41 75 -30 14 -64 35 -75 46
-27 27 -25 80 4 106 29 27 44 32 92 31 l40 -1 -45 -6z m-1114 -16 c9 8 20 15
26 15 6 0 -1 -9 -15 -20 -32 -25 -37 -25 -36 3 1 16 2 18 6 5 4 -16 6 -16 19
-3z m234 -20 c0 -5 -5 -3 -10 5 -5 8 -10 20 -10 25 0 6 5 3 10 -5 5 -8 10 -19
10 -25z m164 -97 c-21 -68 -39 -125 -41 -127 -5 -8 -11 3 -18 39 -7 33 -6 34
9 15 11 -15 15 -16 16 -5 0 23 63 211 68 205 3 -2 -12 -60 -34 -127z m116 116
c-10 -12 -8 -14 14 -14 l26 0 0 -119 c0 -137 7 -151 71 -151 28 0 39 4 39 15
0 10 -10 15 -30 15 -42 0 -50 23 -50 139 l0 101 41 0 c22 0 38 4 34 9 -3 5 -1
12 5 16 5 3 10 -3 10 -14 0 -18 -6 -21 -40 -21 l-40 0 0 -98 c0 -107 6 -122
52 -122 21 0 28 -5 28 -20 0 -45 -86 -46 -120 -2 -17 21 -20 40 -20 133 0 102
-1 109 -20 109 -11 0 -20 6 -20 13 -1 19 -22 -35 -75 -188 -26 -77 -52 -149
-58 -160 -16 -32 -49 -65 -66 -65 -9 0 -3 8 15 19 21 13 37 34 47 63 8 23 39
111 67 193 29 83 53 152 55 155 2 3 13 6 25 7 18 2 19 -1 10 -13z m697 1 c2
-6 -3 -19 -10 -28 -11 -16 -17 -17 -60 -5 -41 11 -49 10 -63 -4 -24 -24 -11
-46 43 -69 68 -29 93 -55 93 -99 0 -19 -7 -45 -15 -57 -19 -27 -99 -47 -140
-34 -26 8 -23 9 30 10 67 2 100 20 109 61 10 40 -15 73 -79 106 -62 32 -79 60
-55 90 14 16 72 19 100 4 24 -13 36 15 12 30 -15 9 -13 10 7 8 14 -2 26 -8 28
-13z m-913 -50 l6 -30 -15 25 c-8 14 -14 34 -14 45 0 16 1 17 8 5 5 -8 11 -28
15 -45z m572 27 c16 -11 34 -48 34 -71 0 -19 -6 -21 -75 -21 -83 0 -93 10 -58
60 22 33 33 40 63 40 14 0 30 -4 36 -8z m-851 -18 c-28 -21 -35 -142 -10 -182
l17 -27 -22 21 c-41 40 -23 205 23 204 6 0 3 -7 -8 -16z m102 -15 c7 -13 12
-51 11 -84 l-1 -60 -6 66 c-4 47 -12 74 -26 89 -14 16 -16 22 -5 18 8 -2 21
-15 27 -29z m137 -29 l7 -25 -15 25 c-9 14 -15 32 -15 40 0 13 1 13 8 0 5 -8
12 -26 15 -40z m75 -70 c0 -8 -7 -1 -14 15 -8 17 -14 37 -14 45 0 8 7 2 14
-15 8 -16 14 -37 14 -45z m-23 -65 l28 -81 -20 -39 c-17 -35 -24 -40 -57 -43
-33 -3 -38 -6 -34 -23 3 -10 1 -19 -4 -19 -5 0 -9 11 -9 24 0 21 5 25 38 28
32 3 40 8 55 41 l19 37 -31 81 c-17 44 -31 86 -31 92 1 19 16 -13 46 -98z
m-201 -15 c-12 -13 -29 -19 -49 -18 l-31 1 32 4 c20 3 37 12 44 24 6 12 13 18
16 15 4 -3 -2 -15 -12 -26z"/>
<path d="M862 400 c-39 -37 -29 -50 37 -50 56 0 59 1 53 23 -12 47 -55 60 -90
27z"/>
</g>
</svg>
